<?xml version="1.0" encoding="utf-8"?>
<!-- Generator: Adobe Illustrator 24.0.2, SVG Export Plug-In . SVG Version: 6.00 Build 0)  -->
<svg version="1.1" id="Layer_1" xmlns="http://www.w3.org/2000/svg" xmlns:xlink="http://www.w3.org/1999/xlink" x="0px" y="0px"
	 viewBox="0 0 122.9 122.7" style="enable-background:new 0 0 122.9 122.7;" xml:space="preserve">
<style type="text/css">
	.st0{fill-rule:evenodd;clip-rule:evenodd;fill:#FFFFFF;}
</style>
<g>
	<path class="st0" d="M43.8,78.6l9.7,28.6l4.9-17l-2.4-2.6c-1.1-1.6-1.3-3-0.7-4.2c1.3-2.6,4-2.1,6.5-2.1c2.6,0,5.9-0.5,6.7,2.8
		c0.3,1.1-0.1,2.3-0.8,3.4l-2.4,2.6l4.9,17l8.8-28.6c6.4,5.7,25.2,6.9,32.2,10.8c2.2,1.2,4.2,2.8,5.8,4.9c2.4,3.2,3.9,7.4,4.3,12.8
		l1.5,9.3c-0.4,3.8-2.5,6-6.7,6.3H61.9H6.7c-4.2-0.3-6.4-2.5-6.7-6.3l1.5-9.3c0.4-5.3,1.9-9.6,4.3-12.8c1.6-2.1,3.6-3.7,5.8-4.9
		C18.6,85.4,37.5,84.3,43.8,78.6L43.8,78.6z M39.4,37.6c-1.2,0-2.1,0.3-2.7,0.7c-0.4,0.2-0.6,0.5-0.8,0.9c-0.2,0.4-0.3,0.9-0.3,1.5
		c0,1.7,0.9,3.8,2.6,6.3l0,0l0,0l5.4,8.7c2.2,3.5,4.5,7,7.3,9.6c2.7,2.5,6,4.2,10.4,4.2c4.8,0,8.2-1.8,11-4.4
		c2.9-2.8,5.3-6.5,7.5-10.3l6.1-10.1c1.1-2.6,1.6-4.3,1.3-5.4c-0.2-0.6-0.8-0.9-2-1c-0.2,0-0.5,0-0.8,0c-0.3,0-0.6,0-0.9,0
		c-0.2,0-0.3,0-0.5,0c-0.6,0-1.1,0-1.7-0.1l2.1-9.3c-11.2-0.1-18.9-2.1-28-7.9c-3-1.9-3.9-4.1-6.9-3.9c-2.3,0.4-4.1,1.4-5.7,3.1
		c-1.4,1.5-2.5,3.7-3.2,6.4l1.2,11C40.6,37.7,40,37.7,39.4,37.6L39.4,37.6z M87.6,35.6c1.5,0.5,2.5,1.4,2.9,3c0.4,1.7,0,4.1-1.5,7.4
		l0,0c0,0.1-0.1,0.1-0.1,0.2l-6.2,10.2c-2.4,3.9-4.8,7.9-8.1,10.9c-3.3,3.1-7.5,5.2-13.1,5.2c-5.3,0-9.3-2-12.5-5
		c-3.2-2.9-5.6-6.6-7.8-10.2l-5.4-8.7c-2-3-3-5.7-3.1-7.9c0-1,0.2-2,0.5-2.8c0.4-0.9,1-1.6,1.9-2.2c0.4-0.3,0.8-0.5,1.3-0.7
		c-0.3-4.7-0.5-10.6-0.3-15.6c0.1-1.2,0.3-2.4,0.7-3.5c1.4-5,4.9-9,9.2-11.7c1.5-1,3.2-1.8,5-2.4C61.3-2,75.2,0.1,82.6,8.1
		c3,3.3,4.9,7.6,5.3,13.3L87.6,35.6L87.6,35.6z"/>
</g>
</svg>
